<?xml version="1.0" encoding="UTF-8" standalone="no"?>
<!-- Created with Inkscape (http://www.inkscape.org/) -->

<svg
   version="1.0"
   width="250"
   height="250"
   id="svg2"
   sodipodi:docname="MPP_Logo_Light-mode.svg"
   xml:space="preserve"
   inkscape:version="1.2.2 (732a01da63, 2022-12-09)"
   xmlns:inkscape="http://www.inkscape.org/namespaces/inkscape"
   xmlns:sodipodi="http://sodipodi.sourceforge.net/DTD/sodipodi-0.dtd"
   xmlns="http://www.w3.org/2000/svg"
   xmlns:svg="http://www.w3.org/2000/svg"><sodipodi:namedview
     id="namedview6"
     pagecolor="#ffffff"
     bordercolor="#000000"
     borderopacity="0.25"
     inkscape:showpageshadow="2"
     inkscape:pageopacity="0.0"
     inkscape:pagecheckerboard="0"
     inkscape:deskcolor="#d1d1d1"
     showgrid="false"
     inkscape:zoom="2.8284271"
     inkscape:cx="184.90842"
     inkscape:cy="131.16831"
     inkscape:window-width="2560"
     inkscape:window-height="1417"
     inkscape:window-x="-8"
     inkscape:window-y="-8"
     inkscape:window-maximized="1"
     inkscape:current-layer="layer1" /><defs
     id="defs4" /><g
     transform="translate(-293.28559,-504.19295)"
     id="layer1"><path
       style="fill:#000000;stroke-width:1.25;fill-opacity:0.25"
       d="m 293.28559,689.19295 v -2.5 h 125 125 v 2.5 2.5 h -125 -125 z m 0,-30 v -2.5 h 125 125 v 2.5 2.5 h -125 -125 z m 0,-30 v -2.5 h 125 125 v 2.5 2.5 h -125 -125 z m 0,-30 v -2.5 h 125 125 v 2.5 2.5 h -125 -125 z m 0,-30 v -2.5 h 125 125 v 2.5 2.5 h -125 -125 z"
       id="path4152"
       inkscape:label="Sheet Music Staff" /><path
       id="text2502-0"
       style="font-style:normal;font-variant:normal;font-weight:normal;font-stretch:normal;font-size:174.261px;font-family:Emmentaler;-inkscape-font-specification:Emmentaler;text-align:center;text-anchor:middle;display:inline;fill:#000000;fill-opacity:1;stroke:none;stroke-width:0.999998px;stroke-linecap:butt;stroke-linejoin:miter;stroke-opacity:1"
       d="m 341.28948,590.15877 c -5.9044,0.27758 -11.05646,2.45295 -15.45704,6.52539 -4.40057,4.07255 -7.82257,8.37692 -10.26757,12.91406 -2.44501,4.53722 -3.68695,7.64092 -3.72461,9.3125 0.0218,0.95482 0.32595,1.6595 0.91405,2.11328 0.58814,0.45382 1.32959,0.67944 2.22267,0.67579 1.17261,0.004 2.31266,-0.35314 3.41992,-1.06836 1.10727,-0.71516 1.94119,-1.81148 2.5039,-3.28907 1.00199,-3.22376 2.52862,-6.48982 4.57618,-9.80078 2.04753,-3.31087 4.35545,-5.09795 6.92577,-5.35937 0.78053,0.0146 1.35403,0.29087 1.72071,0.82812 0.36666,0.53734 0.54854,1.24899 0.54492,2.13477 -0.029,0.87133 -0.14631,1.74202 -0.34961,2.61328 l -10.45508,30.32227 c -0.14522,0.52277 -0.20287,1.04558 -0.17383,1.56835 0.007,0.89308 0.2975,1.63259 0.8711,2.22071 0.5736,0.58813 1.38663,0.89423 2.43945,0.91601 h 3.83399 c 1.35775,-0.0327 2.64986,-0.49085 3.87695,-1.37304 1.22705,-0.88218 2.08382,-1.99242 2.57031,-3.33203 l 10.28125,-30.32227 c 0.58085,-1.45212 1.55486,-2.73031 2.91993,-3.83398 1.36499,-1.1036 2.77241,-1.68406 4.2246,-1.74219 0.78051,0.0182 1.35401,0.28753 1.72071,0.80664 0.36664,0.51919 0.54852,1.18014 0.54492,1.98242 -3e-5,0.44294 -0.0438,0.90809 -0.13086,1.39453 -0.0872,0.48651 -0.21836,0.94971 -0.39258,1.39258 l -8.53711,30.32227 c -0.0908,0.25412 -0.17128,0.4867 -0.24023,0.69726 -0.069,0.21057 -0.10578,0.44119 -0.10938,0.69531 0.0109,0.97658 0.33786,1.76872 0.98047,2.375 0.64256,0.60627 1.53609,0.91935 2.67969,0.9375 h 3.83398 c 1.3541,-0.0327 2.60946,-0.49085 3.76758,-1.37304 1.15806,-0.88218 1.93433,-1.99242 2.33007,-3.33203 l 8.7129,-30.32227 c 0.50095,-1.45212 1.41732,-2.73031 2.74609,-3.83398 1.32869,-1.1036 2.67844,-1.68406 4.05079,-1.74219 0.86397,0.0218 1.48817,0.32793 1.87304,0.91601 0.38477,0.58817 0.57361,1.32767 0.56641,2.22071 -0.0291,0.72611 -0.14441,1.53915 -0.34766,2.43945 l -6.79688,28.75391 c -0.20335,0.668 -0.31866,1.42338 -0.34765,2.26562 0.004,1.68814 0.47569,3.0588 1.41602,4.11524 0.94022,1.05644 2.32674,1.60208 4.16016,1.63476 6.43299,-0.43202 12.3429,-2.57393 17.73046,-6.42578 4.67621,-3.34333 7.44152,-6.02108 8.31054,-8.03516 l -8.01366,23.69532 v 0.002 c -0.18683,0.45733 -0.38584,0.89078 -0.59571,1.29883 -0.63038,1.22565 -1.3649,2.22882 -2.20312,3.00976 -1.11762,1.04125 -2.42108,1.68686 -3.90821,1.9375 -2.97421,0.50125 -5.72498,0.78993 -8.2539,0.86524 -0.94833,0.0282 -1.73046,0.21911 -2.34571,0.57226 -1.0254,0.58859 -1.58731,1.62798 -1.68749,3.11914 0.004,0.91483 0.30085,1.7418 0.89258,2.48243 0.14793,0.18514 0.31215,0.34865 0.49413,0.49023 7.2e-4,5.6e-4 0.001,10e-4 0.002,0.002 0.18141,0.14087 0.38053,0.25978 0.59571,0.35742 0.40574,0.18455 0.87638,0.28575 1.40235,0.31641 0.0348,0.002 0.0643,0.0104 0.0996,0.0117 0.30233,-0.0364 2.22384,-0.18153 5.76952,-0.43555 1.77392,-0.12711 3.7644,-0.22817 5.96875,-0.30078 2.20365,-0.0726 4.62202,-0.11662 7.25586,-0.13476 2.49916,0.0178 4.7978,0.0626 6.91993,0.13281 0.0413,10e-4 0.0936,5.6e-4 0.13476,0.002 6e-4,2e-5 0.001,-2e-5 0.002,0 2.1556,0.0726 4.11707,0.17375 5.88085,0.30078 3.52873,0.2541 5.49071,0.39922 5.88282,0.43555 1.1363,-0.0436 2.00002,-0.4352 2.59179,-1.17578 0.44381,-0.55547 0.72098,-1.16099 0.83399,-1.81445 0.0377,-0.21783 0.0577,-0.44122 0.0586,-0.66993 -0.0275,-0.53491 -0.0969,-1.00512 -0.20703,-1.41406 -0.10966,-0.40725 -0.25956,-0.75284 -0.45117,-1.03516 -5.4e-4,-7.8e-4 -0.001,-10e-4 -0.002,-0.002 -0.0955,-0.14066 -0.20059,-0.26535 -0.3164,-0.375 -6.8e-4,-6.3e-4 -0.001,-10e-4 -0.002,-0.002 -0.1159,-0.10946 -0.24266,-0.2028 -0.3789,-0.28125 -7.3e-4,-4.2e-4 -0.001,-0.002 -0.002,-0.002 -0.27429,-0.15745 -0.58872,-0.25121 -0.9453,-0.28321 -0.71254,-0.064 -1.42615,-0.16035 -2.13868,-0.28711 -6.2e-4,-1.1e-4 -0.001,1.1e-4 -0.002,0 -0.71254,-0.12682 -1.42418,-0.28498 -2.13672,-0.47461 -5.9e-4,-1.6e-4 -10e-4,1.6e-4 -0.002,0 -0.35607,-0.0948 -0.6713,-0.26828 -0.94532,-0.51953 -0.82289,-0.75553 -1.27514,-2.21703 -1.35742,-4.38476 0.004,-0.3449 0.0223,-0.68554 0.0586,-1.01953 0.0363,-0.334 0.0892,-0.66128 0.1582,-0.98438 0.13794,-0.64622 0.29894,-1.31415 0.48046,-2.00391 l 2.96095,-8.88867 c 0.26818,-0.65074 0.67571,-1.07772 1.22265,-1.28125 0.18801,-0.07 0.39234,-0.11179 0.61328,-0.1289 0.37553,-0.0294 0.8066,0.0289 1.27735,0.15234 0.0579,0.0152 0.10861,0.0196 0.16797,0.0371 6.6e-4,1.9e-4 0.001,-2e-4 0.002,0 0.27474,0.0812 0.56354,0.1877 0.86914,0.31836 6e-4,2.6e-4 10e-4,-2.6e-4 0.002,0 0.30575,0.13078 0.62627,0.28648 0.96289,0.4668 5.6e-4,2.9e-4 0.001,-3e-4 0.002,0 0.33673,0.18032 0.69566,0.35227 1.07617,0.51562 0.23469,0.1008 0.49278,0.19277 0.74413,0.28711 0.15694,0.0589 0.30142,0.12332 0.46485,0.17969 6e-4,2e-4 0.001,-2.1e-4 0.002,0 1.6996,0.58602 3.75073,1.03568 6.15235,1.34961 1.20179,0.15714 2.49153,0.28014 3.86914,0.36914 0.68838,-0.0146 1.38174,-0.0733 2.08204,-0.17774 1.40006,-0.20866 2.82379,-0.59823 4.27147,-1.16601 0.72463,-0.28427 1.45681,-0.61209 2.19337,-0.98633 1.47168,-0.74764 2.96506,-1.67637 4.48437,-2.7832 1.51978,-1.10728 3.06343,-2.39465 4.63086,-3.86133 0.0128,-0.012 0.0243,-0.0251 0.0371,-0.0371 0.74467,-0.69919 1.44777,-1.43053 2.11133,-2.19141 0.733,-0.84052 1.41872,-1.71896 2.05273,-2.63476 0.5714,-0.82544 1.10276,-1.68177 1.59375,-2.56836 0.53439,-0.96499 1.02377,-1.96453 1.46289,-3.00196 0.56602,-1.33721 1.02389,-2.75726 1.43164,-4.21484 1.89633,-0.83415 3.371,-2.46937 4.40821,-4.93555 1.44677,-3.43997 2.86521,-6.88027 4.2539,-10.32031 1.38869,-3.43997 3.55393,-5.29198 6.49805,-5.55664 0.51549,4e-5 0.87927,0.12929 1.08984,0.39063 0.21055,0.26142 0.31194,0.655 0.30469,1.17773 -0.007,0.54097 -0.12259,1.20192 -0.34766,1.98242 -0.2251,0.78057 -0.51532,1.57077 -0.87109,2.37305 l -16.03321,47.39844 c -1.49623,3.66372 -3.73084,5.74676 -6.70507,6.24804 -2.97422,0.50125 -5.725,0.78993 -8.25391,0.86524 -2.52887,0.0753 -3.87486,1.30554 -4.03516,3.6914 0.004,0.91483 0.30281,1.7418 0.89454,2.48243 0.59178,0.74057 1.45549,1.13414 2.59179,1.17773 0.30134,-0.0363 2.22462,-0.18145 5.77149,-0.43555 3.54689,-0.25415 7.95497,-0.40122 13.22265,-0.4375 5.09706,0.0363 9.40876,0.18335 12.9375,0.4375 3.52872,0.2541 5.49071,0.39922 5.88281,0.43555 1.1363,-0.0436 2.00003,-0.43716 2.5918,-1.17773 0.59173,-0.74062 0.88892,-1.56759 0.89258,-2.48243 -0.10974,-2.13522 -0.87838,-3.26654 -2.30468,-3.39453 -1.42637,-0.12803 -2.85298,-0.38202 -4.2793,-0.76172 -1.42635,-0.37973 -2.19304,-2.01593 -2.30274,-4.90625 0.007,-0.68979 0.0789,-1.3577 0.2168,-2.0039 0.13795,-0.64622 0.29893,-1.31415 0.48047,-2.00391 l 2.96094,-8.88672 c 0.71517,-1.73532 2.42175,-1.88043 5.11913,-0.43554 2.69735,1.44489 6.79932,2.34539 12.30664,2.70117 5.50726,-0.11617 11.3963,-3.10789 17.66602,-8.97461 6.26962,-5.86671 9.67581,-13.91155 10.2168,-24.13477 -0.0255,-5.78318 -1.63067,-10.50931 -4.81446,-14.17969 -3.18389,-3.67027 -7.79474,-5.56569 -13.83202,-5.68554 -3.11128,0.04 -6.2551,0.87392 -9.43165,2.5039 -3.17662,1.6301 -6.01628,3.81574 -8.51757,6.55664 -0.60994,-2.58842 -1.78479,-4.73034 -3.52735,-6.42578 -1.7426,-1.69535 -4.05249,-2.57299 -6.92773,-2.63476 -4.79749,0.29263 -9.00802,2.45632 -12.63086,6.49219 -1.86163,2.0739 -3.50487,4.17921 -4.94726,6.31445 -0.0808,-0.27447 -0.14933,-0.55653 -0.24024,-0.82422 -0.80231,-2.3624 -1.99848,-4.46231 -3.58984,-6.29688 -0.39833,-0.45917 -0.81874,-0.88936 -1.26173,-1.29296 -0.44218,-0.40297 -0.90586,-0.77937 -1.39257,-1.12696 -4.5e-4,-3.2e-4 -0.002,3.2e-4 -0.002,0 -0.48671,-0.34751 -0.99614,-0.66879 -1.52735,-0.96094 -5.1e-4,-2.7e-4 -10e-4,2.8e-4 -0.002,0 -0.53124,-0.29207 -1.08442,-0.55625 -1.66016,-0.79296 -5.5e-4,-2.3e-4 -10e-4,2.3e-4 -0.002,0 -0.20121,-0.0827 -0.42031,-0.14281 -0.62695,-0.21875 -0.38463,-0.1413 -0.76257,-0.29033 -1.16602,-0.40821 -1.15385,-0.33728 -2.39332,-0.56917 -3.70117,-0.71484 -0.0998,-0.0111 -0.19223,-0.031 -0.29297,-0.041 -6.3e-4,-6e-5 -10e-4,7e-5 -0.002,0 -0.71008,-0.0704 -1.44261,-0.11392 -2.19727,-0.1289 -2.33346,0.03 -4.68451,0.50727 -7.05469,1.43164 -0.79005,0.30812 -1.58281,0.66477 -2.37695,1.07226 -0.79365,0.40727 -1.56491,0.85153 -2.3164,1.32813 -1.50443,0.95411 -2.92428,2.04535 -4.25977,3.27734 -0.66687,0.61519 -1.31276,1.26475 -1.9375,1.94922 -0.15254,-0.64665 -0.34315,-1.26457 -0.56641,-1.85547 -0.44643,-1.18161 -1.03252,-2.25226 -1.76171,-3.21093 -5.6e-4,-7.4e-4 -0.001,-10e-4 -0.002,-0.002 -0.36429,-0.47894 -0.76435,-0.93021 -1.19922,-1.35351 -6.6e-4,-6.5e-4 -10e-4,-10e-4 -0.002,-0.002 -0.21716,-0.21127 -0.44298,-0.4098 -0.67774,-0.5957 -7.1e-4,-5.6e-4 -10e-4,-10e-4 -0.002,-0.002 -0.23511,-0.18607 -0.47968,-0.35891 -0.73242,-0.51953 -4.8e-4,-3.1e-4 -10e-4,3e-4 -0.002,0 -0.14305,-0.0909 -0.29465,-0.16922 -0.44335,-0.25196 -0.11462,-0.0637 -0.22382,-0.13446 -0.3418,-0.19336 -0.27039,-0.13508 -0.54987,-0.25753 -0.83789,-0.36718 -5.7e-4,-2.2e-4 -10e-4,2.1e-4 -0.002,0 -0.28805,-0.10961 -0.58496,-0.20684 -0.89063,-0.29102 -6e-4,-1.7e-4 -10e-4,1.7e-4 -0.002,0 -0.30572,-0.0841 -0.62003,-0.15614 -0.94337,-0.21484 -6.1e-4,-1.1e-4 -0.001,1.1e-4 -0.002,0 -0.64801,-0.11754 -1.33196,-0.18378 -2.05078,-0.19922 -1.79905,0.10973 -3.51456,0.48301 -5.14843,1.11914 -1.08874,0.42389 -2.14087,0.96543 -3.15625,1.62304 -0.50841,0.32928 -1.00803,0.68635 -1.49805,1.07422 -0.97913,0.77502 -1.92046,1.66682 -2.82617,2.67579 -0.90572,1.00899 -1.76187,2.02532 -2.56836,3.04882 -2.41945,3.07053 -4.39355,6.20703 -5.91992,9.40821 -0.23158,0.48569 -0.4037,0.87316 -0.60938,1.3164 l 1.60937,-6.84765 c 0.0907,-0.44287 0.17119,-0.90802 0.24024,-1.39453 0.0689,-0.48643 0.10372,-0.94963 0.10742,-1.39258 -0.0618,-3.18382 -1.02689,-6.00952 -2.89648,-8.47461 -1.86972,-2.46499 -4.27206,-3.76407 -7.20899,-3.89844 -2.55222,0.0255 -5.07183,0.62876 -7.55859,1.80859 -2.48688,1.17992 -4.78978,2.78316 -6.90625,4.8125 -0.52645,-1.9531 -1.39019,-3.53544 -2.59179,-4.74804 -1.20172,-1.2125 -2.71944,-1.8367 -4.55274,-1.87305 -2.55221,0.0218 -5.0718,0.58837 -7.5586,1.69922 -2.48684,1.11095 -4.7878,2.63564 -6.90429,4.57422 -0.52281,-1.86235 -1.34976,-3.36614 -2.48243,-4.50977 -1.1327,-1.14352 -2.57188,-1.73094 -4.31444,-1.76367 z m 69.7832,10.28125 c 0.25775,2e-5 0.47668,0.0323 0.6582,0.0977 5.3e-4,1.9e-4 10e-4,-1.9e-4 0.002,0 0.18072,0.0653 0.32277,0.1627 0.42773,0.29297 5.5e-4,6.7e-4 10e-4,10e-4 0.002,0.002 0.10451,0.1304 0.18184,0.29318 0.23243,0.48828 0.0508,0.19604 0.0739,0.42613 0.0703,0.6875 -0.007,0.54097 -0.12259,1.20192 -0.34766,1.98242 -0.2251,0.78057 -0.51532,1.57077 -0.87109,2.37305 l -7.9297,23.44531 c 0.0756,-0.21093 0.15232,-0.42173 0.1836,-0.61719 -0.0182,-0.79504 -0.28758,-1.42619 -0.80664,-1.89453 -0.51923,-0.46831 -1.17823,-0.70784 -1.98047,-0.71875 -1.69183,0.29045 -3.5803,1.45332 -5.66406,3.48633 -2.08391,2.03303 -4.14534,3.19396 -6.18555,3.48438 -0.35585,-0.004 -0.64803,-0.12785 -0.87305,-0.3711 -0.22515,-0.24322 -0.34045,-0.58416 -0.34765,-1.02344 -0.0291,-0.2033 0.0286,-0.49352 0.17383,-0.87109 l 2.5371,-10.79687 c 0.0369,0.0524 0.0627,0.11272 0.10352,0.1621 0.0653,0.079 0.15142,0.14154 0.22656,0.2129 0.0801,0.0761 0.1489,0.16106 0.24024,0.22851 0.10944,0.0808 0.22949,0.14261 0.3457,0.21094 0.0713,0.0419 0.13707,0.0937 0.21094,0.13086 4.9e-4,2.5e-4 0.001,-2.5e-4 0.002,0 0.0555,0.0279 0.11693,0.0451 0.17383,0.0703 0.30601,0.1359 0.63096,0.23572 0.97852,0.29492 0.0409,0.007 0.0777,0.0215 0.11914,0.0274 0.23067,0.0328 0.47028,0.0488 0.71874,0.0488 1.55885,-0.13262 2.90976,-0.66158 4.05079,-1.58789 0.28569,-0.23183 0.5569,-0.48795 0.81641,-0.76953 0.25886,-0.28079 0.50546,-0.58573 0.73828,-0.91601 3.1e-4,-4.4e-4 -3.1e-4,-0.002 0,-0.002 0.23308,-0.33077 0.45319,-0.68602 0.66016,-1.0664 0.20695,-0.38039 0.40117,-0.78484 0.58202,-1.21485 1.44677,-3.43997 2.86521,-6.88027 4.25391,-10.32031 0.69413,-1.71944 1.58133,-3.04264 2.66406,-3.96875 1.0832,-0.92615 2.36193,-1.45556 3.83399,-1.58789 z m 28.40429,0 c 0.38844,0.0109 0.74805,0.0546 1.08204,0.13086 5.9e-4,1.3e-4 10e-4,-1.4e-4 0.002,0 0.66715,0.15259 1.22602,0.43614 1.67578,0.84961 0.22509,0.20693 0.42311,0.44648 0.59375,0.71875 0.68247,1.08916 1.01642,2.43892 1.00195,4.05078 0.0118,1.27148 -0.57373,4.43947 -1.75586,9.50586 -1.1822,5.06644 -3.03268,9.97972 -5.55078,14.73633 -0.62954,1.18916 -1.30347,2.23909 -2.02539,3.15234 -3.1e-4,4e-4 3.2e-4,0.002 0,0.002 -0.36066,0.45617 -0.73542,0.87832 -1.11914,1.26563 -1.53619,1.55058 -3.25644,2.54915 -5.16211,2.99609 -0.47641,0.11174 -0.96533,0.18771 -1.46484,0.23047 -0.44477,-0.008 -0.84991,-0.0554 -1.23633,-0.12304 -0.0427,-0.007 -0.0947,-0.005 -0.13672,-0.0137 -6.4e-4,-1.2e-4 -0.001,1.3e-4 -0.002,0 -0.84396,-0.16498 -1.54359,-0.47721 -2.09961,-0.93554 -7.1e-4,-5.9e-4 -0.001,-10e-4 -0.002,-0.002 -0.27746,-0.22903 -0.51893,-0.49469 -0.72461,-0.79687 -4.9e-4,-7.2e-4 -10e-4,-10e-4 -0.002,-0.002 -0.82312,-1.21227 -1.22072,-2.79605 -1.19531,-4.74805 0.0236,-3.01618 0.78877,-6.93448 2.29687,-11.75781 1.50808,-4.82329 3.61566,-9.18221 6.32422,-13.07618 0.67713,-0.97347 1.38278,-1.83376 2.11719,-2.57812 0.73441,-0.74436 1.49737,-1.37343 2.28907,-1.88867 0.39584,-0.25763 0.79882,-0.48716 1.20897,-0.6875 1.23051,-0.60104 2.52539,-0.94377 3.88477,-1.0293 z m 63.64453,0 c 1.55376,0.0436 2.67292,0.61014 3.35547,1.69922 0.68248,1.08916 1.01643,2.43892 1.00196,4.05078 0.0118,1.27148 -0.57374,4.43947 -1.75586,9.50586 -1.18221,5.06644 -3.03268,9.97972 -5.55079,14.73633 -2.51818,4.75663 -5.77541,7.30442 -9.77148,7.64648 -1.97859,-0.0363 -3.37906,-0.66049 -4.20312,-1.87304 -0.82413,-1.21255 -1.22466,-2.79489 -1.19922,-4.74805 0.0236,-3.01618 0.79071,-6.93643 2.29882,-11.75977 1.50806,-4.82328 3.61565,-9.1822 6.32422,-13.07617 2.70851,-3.8939 5.87496,-5.95356 9.5,-6.18164 z"
       inkscape:label="MPP" /></g></svg>
